<svg xmlns="http://www.w3.org/2000/svg" viewBox="0 0 640 800" role="img" aria-labelledby="title desc">
  <title id="title">Profile placeholder</title>
  <desc id="desc">Abstract portrait placeholder for an academic homepage.</desc>
  <rect width="640" height="800" fill="#e5ece9"/>
  <path d="M0 0h640v210c-84 34-162 51-235 51-139 0-205-74-405-38z" fill="#0f766e" opacity=".92"/>
  <path d="M640 800H0V610c83-45 174-68 273-68 151 0 242 65 367 45z" fill="#27548a" opacity=".95"/>
  <path d="M92 715C182 546 266 391 346 250" fill="none" stroke="#b4532a" stroke-width="34" stroke-linecap="round"/>
  <circle cx="320" cy="343" r="104" fill="#fffaf1" stroke="#17202a" stroke-width="10"/>
  <path d="M168 648c18-122 78-190 152-190s134 68 152 190" fill="#fffaf1" stroke="#17202a" stroke-width="10"/>
  <path d="M227 333c48-68 137-76 190-8" fill="none" stroke="#17202a" stroke-width="12" stroke-linecap="round"/>
  <circle cx="280" cy="365" r="10" fill="#17202a"/>
  <circle cx="361" cy="365" r="10" fill="#17202a"/>
  <path d="M290 414c24 17 52 17 76 0" fill="none" stroke="#17202a" stroke-width="10" stroke-linecap="round"/>
  <path d="M78 96h190M78 142h126M462 669h100M426 710h136" stroke="#fffaf1" stroke-width="13" stroke-linecap="round" opacity=".9"/>
</svg>
